name Visual3d_SIMM_grf.mot
datacolumns 19
datarows 44
range 1.590000 2.020000
endheader
time	ground_force_vx	ground_force_vy	ground_force_vz	ground_force_px	ground_force_py	ground_force_pz	l_ground_force_vx	l_ground_force_vy	l_ground_force_vz	l_ground_force_px	l_ground_force_py	l_ground_force_pz	ground_torque_x	ground_torque_y	ground_torque_z	l_ground_torque_x	l_ground_torque_y	l_ground_torque_z
1.590000	-2.042322	219.357849	17.150564	0.295846	-0.002652	0.164829	0.000000	0.000000	0.000000	0.000000	0.000000	0.000000	0.002474	0.744537	-0.013996	0.000000	0.000000	0.000000
1.600000	-2.281407	247.220520	19.027082	0.296999	-0.002813	0.164536	0.000000	0.000000	0.000000	0.000000	0.000000	0.000000	0.002826	0.850483	-0.015987	0.000000	0.000000	0.000000
1.610000	-3.174961	269.924835	20.421146	0.297837	-0.003272	0.164223	0.000000	0.000000	0.000000	0.000000	0.000000	0.000000	0.003050	0.917824	-0.017253	0.000000	0.000000	0.000000
1.620000	-4.695370	287.820892	21.223415	0.298520	-0.003814	0.163928	0.000000	0.000000	0.000000	0.000000	0.000000	0.000000	0.003168	0.953468	-0.017923	0.000000	0.000000	0.000000
1.630000	-6.655990	301.591248	21.328129	0.299199	-0.004295	0.163674	0.000000	0.000000	0.000000	0.000000	0.000000	0.000000	0.003225	0.970685	-0.018247	0.000000	0.000000	0.000000
1.640000	-8.831211	311.928467	20.650433	0.299962	-0.004642	0.163468	0.000000	0.000000	0.000000	0.000000	0.000000	0.000000	0.003255	0.979742	-0.018417	0.000000	0.000000	0.000000
1.650000	-11.042585	319.453247	19.158417	0.300827	-0.004835	0.163310	0.000000	0.000000	0.000000	0.000000	0.000000	0.000000	0.003269	0.983744	-0.018492	0.000000	0.000000	0.000000
1.660000	-13.156271	324.582703	16.891811	0.301754	-0.004893	0.163191	0.000000	0.000000	0.000000	0.000000	0.000000	0.000000	0.003257	0.980215	-0.018426	0.000000	0.000000	0.000000
1.670000	-15.037719	327.482117	13.978101	0.302680	-0.004859	0.163100	0.000000	0.000000	0.000000	0.000000	0.000000	0.000000	0.003206	0.965004	-0.018140	0.000000	0.000000	0.000000
1.680000	-16.545279	328.116364	10.621314	0.303535	-0.004781	0.163023	0.000000	0.000000	0.000000	0.000000	0.000000	0.000000	0.003112	0.936635	-0.017607	0.000000	0.000000	0.000000
1.690000	-17.554052	326.314209	7.057508	0.304261	-0.004700	0.162946	0.000000	0.000000	0.000000	0.000000	0.000000	0.000000	0.002978	0.896372	-0.016850	0.000000	0.000000	0.000000
1.700000	-17.994848	321.888336	3.493079	0.304835	-0.004643	0.162860	0.000000	0.000000	0.000000	0.000000	0.000000	0.000000	0.002809	0.845466	-0.015893	0.000000	0.000000	0.000000
1.710000	-17.876375	314.795654	0.068169	0.305255	-0.004614	0.162761	0.000000	0.000000	0.000000	0.000000	0.000000	0.000000	0.002604	0.783799	-0.014734	0.000000	0.000000	0.000000
1.720000	-17.266212	305.180023	-3.151271	0.305529	-0.004604	0.162649	0.000000	0.000000	0.000000	0.000000	0.000000	0.000000	0.002365	0.711786	-0.013380	0.000000	0.000000	0.000000
1.730000	-16.260719	293.321686	-6.146162	0.305670	-0.004590	0.162520	0.000000	0.000000	0.000000	0.000000	0.000000	0.000000	0.002094	0.630348	-0.011849	0.000000	0.000000	0.000000
1.740000	-14.962233	279.589447	-8.893920	0.305690	-0.004553	0.162367	0.000000	0.000000	0.000000	0.000000	0.000000	0.000000	0.001797	0.540943	-0.010169	0.000000	0.000000	0.000000
1.750000	-13.475574	264.386200	-11.350389	0.305599	-0.004476	0.162176	0.000000	0.000000	0.000000	0.000000	0.000000	0.000000	0.001482	0.446166	-0.008387	0.000000	0.000000	0.000000
1.760000	-11.899746	248.127426	-13.450963	0.305404	-0.004351	0.161924	0.000000	0.000000	0.000000	0.000000	0.000000	0.000000	0.001160	0.349260	-0.006565	0.000000	0.000000	0.000000
1.770000	-10.328870	231.245117	-15.135796	0.305116	-0.004177	0.161581	0.000000	0.000000	0.000000	0.000000	0.000000	0.000000	0.000843	0.253783	-0.004771	0.000000	0.000000	0.000000
1.780000	-8.843903	214.179657	-16.383587	0.304741	-0.003962	0.161120	0.000000	0.000000	0.000000	0.000000	0.000000	0.000000	0.000543	0.163431	-0.003072	0.000000	0.000000	0.000000
1.790000	-7.512043	197.387283	-17.225801	0.304289	-0.003722	0.160523	0.000000	0.000000	0.000000	0.000000	0.000000	0.000000	0.000274	0.082476	-0.001550	0.000000	0.000000	0.000000
1.800000	-6.382255	181.318253	-17.746334	0.303789	-0.003479	0.159794	0.000000	0.000000	0.000000	0.000000	0.000000	0.000000	0.000047	0.014013	-0.000263	0.000000	0.000000	0.000000
1.810000	-5.490080	166.387650	-18.058153	0.303269	-0.003248	0.158956	0.000000	0.000000	0.000000	0.000000	0.000000	0.000000	-0.000132	-0.039618	0.000745	0.000000	0.000000	0.000000
1.820000	-4.858915	152.952759	-18.285433	0.302754	-0.003043	0.158048	0.000000	0.000000	0.000000	0.000000	0.000000	0.000000	-0.000258	-0.077534	0.001457	0.000000	0.000000	0.000000
1.830000	-4.497910	141.290741	-18.539465	0.302269	-0.002867	0.157119	0.000000	0.000000	0.000000	0.000000	0.000000	0.000000	-0.000335	-0.100827	0.001895	0.000000	0.000000	0.000000
1.840000	-4.398820	131.548615	-18.915434	0.301828	-0.002720	0.156215	0.000000	0.000000	0.000000	0.000000	0.000000	0.000000	-0.000374	-0.112502	0.002115	0.000000	0.000000	0.000000
1.850000	-4.532544	123.748680	-19.478035	0.301422	-0.002601	0.155385	0.000000	0.000000	0.000000	0.000000	0.000000	0.000000	-0.000384	-0.115548	0.002172	0.000000	0.000000	0.000000
1.860000	-4.854795	117.802078	-20.255449	0.301031	-0.002508	0.154679	0.000000	0.000000	0.000000	0.000000	0.000000	0.000000	-0.000375	-0.112822	0.002121	0.000000	0.000000	0.000000
1.870000	-5.301184	113.536949	-21.243319	0.300611	-0.002442	0.154120	0.000000	0.000000	0.000000	0.000000	0.000000	0.000000	-0.000352	-0.105905	0.001991	0.000000	0.000000	0.000000
1.880000	-5.793497	110.733856	-22.419931	0.300116	-0.002405	0.153702	0.000000	0.000000	0.000000	0.000000	0.000000	0.000000	-0.000315	-0.094776	0.001782	0.000000	0.000000	0.000000
1.890000	-6.252007	109.170769	-23.757895	0.299520	-0.002396	0.153407	0.000000	0.000000	0.000000	0.000000	0.000000	0.000000	-0.000261	-0.078425	0.001474	0.000000	0.000000	0.000000
1.900000	-6.606241	108.654587	-25.246698	0.298805	-0.002410	0.153209	0.000000	0.000000	0.000000	0.000000	0.000000	0.000000	-0.000183	-0.054958	0.001033	0.000000	0.000000	0.000000
1.910000	-6.801161	109.047348	-26.907507	0.297970	-0.002436	0.153092	0.000000	0.000000	0.000000	0.000000	0.000000	0.000000	-0.000077	-0.023236	0.000437	0.000000	0.000000	0.000000
1.920000	-6.804895	110.232056	-28.789181	0.297018	-0.002463	0.153037	0.000000	0.000000	0.000000	0.000000	0.000000	0.000000	0.000057	0.017258	-0.000324	0.000000	0.000000	0.000000
1.930000	-6.608773	112.077606	-30.949968	0.295973	-0.002488	0.153013	0.000000	0.000000	0.000000	0.000000	0.000000	0.000000	0.000220	0.066245	-0.001245	0.000000	0.000000	0.000000
1.940000	-6.227339	114.372131	-33.435177	0.294866	-0.002511	0.152969	0.000000	0.000000	0.000000	0.000000	0.000000	0.000000	0.000411	0.123700	-0.002325	0.000000	0.000000	0.000000
1.950000	-5.690350	116.782196	-36.249939	0.293743	-0.002531	0.152855	0.000000	0.000000	0.000000	0.000000	0.000000	0.000000	0.000626	0.188414	-0.003542	0.000000	0.000000	0.000000
1.960000	-5.030965	118.842316	-39.326862	0.292645	-0.002548	0.152625	0.000000	0.000000	0.000000	0.000000	0.000000	0.000000	0.000860	0.258910	-0.004867	0.000000	0.000000	0.000000
1.970000	-4.282462	119.963394	-42.503582	0.291617	-0.002565	0.152239	0.000000	0.000000	0.000000	0.000000	0.000000	0.000000	0.001104	0.332221	-0.006245	0.000000	0.000000	0.000000
1.980000	-3.478056	119.471436	-45.499847	0.290689	-0.002589	0.151702	3.826421	22.085197	9.008320	0.237180	-0.008338	-0.238619	0.001341	0.403736	-0.007589	-0.003736	0.405393	0.008671
1.990000	-2.649670	116.704559	-47.924561	0.289859	-0.002632	0.151074	5.541848	41.379097	14.523195	0.237866	-0.008149	-0.239471	0.001556	0.468414	-0.008805	-0.003762	0.408245	0.008732
2.000000	-1.826794	111.139000	-49.329922	0.289095	-0.002707	0.150474	7.541179	66.330322	20.293713	0.238698	-0.008090	-0.240075	0.001732	0.521293	-0.009799	-0.003755	0.407477	0.008716
2.010000	-1.044200	102.533562	-49.285370	0.288358	-0.002826	0.150065	9.442275	95.884987	25.647646	0.239894	-0.008163	-0.242125	0.001851	0.557233	-0.010475	-0.003689	0.400293	0.008562
2.020000	-0.341655	91.056923	-47.474438	0.287613	-0.002997	0.150014	10.694272	127.854225	30.269928	0.241389	-0.008359	-0.246734	0.001901	0.572020	-0.010753	-0.003489	0.378579	0.008098
